<svg width="26" height="26" viewBox="0 0 26 26" fill="none" xmlns="http://www.w3.org/2000/svg">
<path d="M22.75 10.8334H3.25M17.3333 2.16669V6.50002M8.66667 2.16669V6.50002M11.375 15.1667L13 14.0834V19.5M11.6458 19.5H14.3542M8.45 23.8334H17.55C19.3702 23.8334 20.2802 23.8334 20.9755 23.4791C21.587 23.1675 22.0842 22.6704 22.3958 22.0589C22.75 21.3636 22.75 20.4536 22.75 18.6334V9.53335C22.75 7.71318 22.75 6.80309 22.3958 6.10789C22.0842 5.49636 21.587 4.99917 20.9755 4.68758C20.2802 4.33335 19.3702 4.33335 17.55 4.33335H8.45C6.62983 4.33335 5.71974 4.33335 5.02453 4.68758C4.413 4.99917 3.91582 5.49636 3.60423 6.10789C3.25 6.80309 3.25 7.71318 3.25 9.53335V18.6334C3.25 20.4536 3.25 21.3636 3.60423 22.0589C3.91582 22.6704 4.413 23.1675 5.02453 23.4791C5.71974 23.8334 6.62983 23.8334 8.45 23.8334Z" stroke="black" stroke-width="2" stroke-linecap="round" stroke-linejoin="round"/>
</svg>
