<svg width="21" height="21" viewBox="0 0 21 21" fill="none" xmlns="http://www.w3.org/2000/svg">
<path d="M10.5 17.5H18.375M2.625 17.5H4.09022C4.51826 17.5 4.73228 17.5 4.93368 17.4516C5.11224 17.4087 5.28294 17.338 5.43952 17.2421C5.61613 17.1339 5.76746 16.9825 6.07013 16.6798L17.0626 5.68745C17.7874 4.96258 17.7874 3.78733 17.0626 3.06245C16.3376 2.33758 15.1624 2.33758 14.4376 3.06245L3.4451 14.0548C3.14244 14.3575 2.9911 14.5089 2.88288 14.6854C2.78693 14.8421 2.71622 15.0127 2.67335 15.1913C2.625 15.3927 2.625 15.6067 2.625 16.0348V17.5Z" stroke="#313131" stroke-width="2" stroke-linecap="round" stroke-linejoin="round"/>
</svg>
