<svg width="25" height="25" viewBox="0 0 25 25" fill="none" xmlns="http://www.w3.org/2000/svg">
<path d="M7.29167 8.85417H12.5M7.29167 12.5H15.625M7.29167 18.75V21.1828C7.29167 21.7379 7.29167 22.0154 7.40545 22.1579C7.5044 22.2819 7.65445 22.3541 7.81306 22.3539C7.99545 22.3536 8.21216 22.1803 8.64558 21.8335L11.1304 19.8456C11.638 19.4396 11.8919 19.2366 12.1745 19.0922C12.4252 18.9641 12.6921 18.8704 12.9679 18.8139C13.2789 18.75 13.6039 18.75 14.2539 18.75H16.875C18.6252 18.75 19.5002 18.75 20.1687 18.4094C20.7568 18.1098 21.2348 17.6318 21.5344 17.0437C21.875 16.3752 21.875 15.5002 21.875 13.75V8.125C21.875 6.37483 21.875 5.49975 21.5344 4.83128C21.2348 4.24327 20.7568 3.76521 20.1687 3.4656C19.5002 3.125 18.6252 3.125 16.875 3.125H8.125C6.37483 3.125 5.49975 3.125 4.83128 3.4656C4.24327 3.76521 3.76521 4.24327 3.4656 4.83128C3.125 5.49975 3.125 6.37483 3.125 8.125V14.5833C3.125 15.5521 3.125 16.0365 3.23148 16.4339C3.52044 17.5122 4.36278 18.3546 5.44119 18.6435C5.83858 18.75 6.32295 18.75 7.29167 18.75Z" stroke="#2D2D2D" stroke-width="2" stroke-linecap="round" stroke-linejoin="round"/>
</svg>
