<svg width="18" height="18" viewBox="0 0 18 18" fill="none" xmlns="http://www.w3.org/2000/svg">
<g clip-path="url(#clip0_51_341)">
<path d="M13.5 7.49998L10.5 4.49998M1.875 16.125L4.41328 15.843C4.72339 15.8085 4.87845 15.7912 5.02339 15.7444C5.15197 15.7027 5.27434 15.6439 5.38717 15.5695C5.51434 15.4856 5.62466 15.3754 5.8453 15.1547L15.75 5.24998C16.5785 4.42156 16.5785 3.07841 15.75 2.24998C14.9216 1.42156 13.5785 1.42156 12.75 2.24998L2.8453 12.1547C2.62466 12.3754 2.51434 12.4856 2.43048 12.6128C2.35607 12.7257 2.29726 12.848 2.25563 12.9766C2.20872 13.1215 2.19148 13.2766 2.15703 13.5867L1.875 16.125Z" stroke="black" stroke-width="2" stroke-linecap="round" stroke-linejoin="round"/>
</g>
<defs>
<clipPath id="clip0_51_341">
<rect width="18" height="18" fill="white"/>
</clipPath>
</defs>
</svg>
