<svg width="24" height="24" viewBox="0 0 24 24" fill="none" xmlns="http://www.w3.org/2000/svg">
<path d="M11.9999 15C8.82978 15 6.01065 16.5306 4.21585 18.906C3.82956 19.4172 3.63641 19.6728 3.64273 20.0183C3.64761 20.2852 3.81521 20.6219 4.02522 20.7867C4.29704 21 4.67372 21 5.42708 21H18.5726C19.326 21 19.7027 21 19.9745 20.7867C20.1845 20.6219 20.3521 20.2852 20.357 20.0183C20.3633 19.6728 20.1702 19.4172 19.7839 18.906C17.9891 16.5306 15.1699 15 11.9999 15Z" stroke="black" stroke-width="2" stroke-linecap="round" stroke-linejoin="round"/>
<path d="M12 12C14.4853 12 16.5 9.98528 16.5 7.5C16.5 5.01472 14.4853 3 12 3C9.51472 3 7.5 5.01472 7.5 7.5C7.5 9.98528 9.51472 12 12 12Z" stroke="black" stroke-width="2" stroke-linecap="round" stroke-linejoin="round"/>
</svg>
